<svg width="210mm" height="297mm" version="1.1" viewBox="0 0 210 297" xmlns="http://www.w3.org/2000/svg">
 <svg id="mainMap" y="15" width="550" height="700" cursor="crosshair" fill="none" stroke="#000000" stroke-width="557.92" version="1.1" viewBox="165815.18 -6655162.4 582430.11 741274.68">
  <g id="mainMapGroup" transform="matrix(.19063 0 0 .19189 177228 -5321170)" fill="none" stroke="#000" stroke-width="2917.1">
   <g id="VA_MB2019_public [Selection]" fill="none" stroke="#000" stroke-width="2917.1">
    <g transform="scale(1,-1)" stroke-width="2917.1">
     <path d="m408302 6273256c-31768 8420.4-25043-63717-18845-44166 672.3-28793 9280.2-27700-23161-22754-51794 11154-59881-35263-52776 27786 2156.6 49661 4347.1 99321 6547.3 148981 51705-2278.7 103454-3584.9 155208-3904.3-1179.5-24633-583.23-93689 692.32-69934-688-34873 14874-39524-20534-36759-15712 164.4-31423 414.1-47132 751.3z" fill="none" stroke="#000" stroke-width="2917.1"/>
     <path d="m586419 6622920c1876-80918 3731.3-161836 5564.5-242755-35997-805.3-72004-1163.9-108010-996.2-193.69 15164 888.08 31597-861.74 45214-91.77 13154 713.54 27201-890.25 38853 48.68 10824 97.43 21649 146.28 32473-2407.4 7633-293.26 19745-930.92 29131 185.3 9630.2-1774.2 17142-948.69 27399 249.86 9749.7 149.7 19156-958.02 27559 58.44 10824 116.97 21649 175.51 32473-2494.7 6979.1-312.99 18582-959.17 27389-5086.8 18804 19736 12845 12933 11705 31254-278.3 63348 659.2 94063 686.1 225.68-9710.3 451.15-19421 676.24-29131z" fill="none" stroke="#000" stroke-width="2917.1"/>
     <path d="m483486 6446852c-53582 224.9-107159 1537.2-160689 3921.3 3049.7 68237 6108.2 136451 9219 204680 48995-2223.4 98034-3494.9 147079-3759 146.83-15311-937.22-31836 857.26-45521 25.6-13221-684.18-27165 892.36-38854 28.9-13215-669.15-27143 889.2-38855 31.93-13212-654.18-27132 886.03-38852-349.15-14915-11.93-29048 865.68-42759zm-554.92 561c-314.57 10148-1552.2 19375-921.61 30456 620.38 13863-1758 24750-889.43 38854 704.1 13413-1755.3 23705-900.87 37260 843.45 13507-1662.2 23697-905.88 37112 543.62 10478-372.09 19516-957.32 28874 59.41 10390 118.84 20780 178.39 31170-48681 272-97356 1530.9-145988 3732.8-3089.3-67877-6133-135674-9167.3-203564 53151-2360.8 106349-3664.1 159552-3893.5z" color="#000000" color-rendering="auto" dominant-baseline="auto" fill="#000" image-rendering="auto" shape-rendering="auto" solid-color="#000000" stop-color="#000000" stroke="none" style="font-feature-settings:normal;font-variant-alternates:normal;font-variant-caps:normal;font-variant-east-asian:normal;font-variant-ligatures:normal;font-variant-numeric:normal;font-variant-position:normal;font-variation-settings:normal;inline-size:0;isolation:auto;mix-blend-mode:normal;shape-margin:0;shape-padding:0;text-decoration-color:#000000;text-decoration-line:none;text-decoration-style:solid;text-indent:0;text-orientation:mixed;text-transform:none;white-space:normal"/>
     <g fill="none" stroke="#000" stroke-width="2917.1">
      <path d="m475305 6379197c-51764 318.3-103522 1625.4-155237 3904.5 1012.5 22643 1996.8 45286 3019.7 67939 53340-2372.5 106728-3680.2 160121-3907.4 19.71-12111-580.95-24834 893.75-35505-42.71-10820-85.38-21640-128-32460-2889.8 5.9-5779.7 11.3-8669.5 29z"/>
      <path d="m477890 6262620c-2372.7 7092.8-318.56 18563-932.3 27394 418.17 10444-1814.2 18258-932.12 29152 257.97 9753.3 162.79 19160-946.41 27560 83.42 10816 95.06 21704 225.69 32472 38892-229.9 77812 97.7 116679 957.2 1032.5-45316 2036.4-90633 3057.5-135949-39077-870-78166-1206.1-117253-1003 33.77 6472.3 67.49 12945 101.17 19417z"/>
      <path d="m460825 6126788c9772.2-83.6 19545-137.6 29317-162-519.62-10512 506.69-19484 880.11-29110 1684.3-7435.3 21168-15352 7930.4-19437 5309.8-343 13207 814.8 16639-572.7-2927-5676.9-6569-11674-10666-16404-4835.7-579.4-11255-273.5-15004-3089.3 2056.2-2103.8 4948.1-3148.9 3768.4-6873.7-71.4-4279.1 3938.4-7678.2 3862.6-11914-31279 20.9-62587 352.7-93841 1028.3 205.14 9708.4 410.5 19417 616.24 29125-3122.6 7948.2-1232.8 26836-1203.4 22625 816.65 11539-634.42 42359-1183.7 24249-2687.1 11130 23138 9149.2 13211 11177 15223-295.1 30448-502.9 45673-642.2z"/>
      <path d="m433793 6081153c2667.9-65.2 955.88 1265.8-90.03 1433.4-408.75-512.7-257.43-853.7 90.03-1433.4z"/>
      <path d="m402194 6127695c-29303 649.9-58599 1588-87883 2815 2034.5 923.4-2963 42280-162.16 19448-3014.1 4884.5-27.09 28916-668.34 20167 266.27 6238.7 1073.9 24955 803.84 18716-5519.5 92.2-627.99 9732.7-1934.8 13688 3280.8 9993.1 22864 5532.2 21336 4933.6 32026-1230.5 64066-2100.5 96111-2618.6-935.16-14631 1259.9-30276 1070.3-25805-171.86-10817-343.33-21634-514.62-32452 8001.2-10970-9530.9-19233-5217.3-19337-7647.2 125.3-15294 281.1-22940 444.8z"/>
      <path d="m447479 6272592c9793.6-117.5 19587-203.7 29382-260 838.19-12314 935.69-30717 953.83-24199-387.38-9006 3611.9-30975 9713.3-16277 91.23-9390.1 1576.7-17400 903.46-27552-382.81-9805.9 202.36-18647 889.52-27392 171.53-12526-712.94-26100 850.31-37244 2508-11205-24240-10350-12990-12992-15225 75.2-30449 237.2-45673 468.4 918.92 14513-1271.2 30606-1056.2 25817 171.32 10817 343.02 21634 514.92 32452 97.01 14352-12434 20548-7546 19540-10904 187.4-21808 425.8-32711 695.9 535.7 8990.7-3061.8 31013-1231.8 24274 292.72 11354 589.15 22709 878.78 34064-7883.3 8214.3 21607 6669.7 12932 9382.5 14729-340.6 29459-591.5 44190-777.4z"/>
      <path d="m600570 5994266c571.26-26724 1159.4-53466 1732.3-80196-4807.7-687.6-9665.2-469.4-12231 2054.7-1345.6 1170.3-3662.3 4611.9-1914.4 7274.3 359.11 2587.6-2766 2870.2-2420 4522.7 372.26 5605.4-5620.8 7574.3-7395.7 12187-3300.5 1400.1-207.37 1893.7 510.28 4358.1 135.88 2382.7-1234.2 4659.5-1070.6 6662-1658.2-429.4-2996.2-740-4349.2-1865.9-2931.2-232-6807.8-783.5-9242.8 238.7-589.51 6956-7787.4 9886.4-12844 13386-11817 7587.9-26917 4179.1-39004-838.6-3788.2-1318.4-7863.4-4784.6-9683.3-7444.2-1087.7 545 255.9 1969.5 1012.1 2060.1 4190.3 4204.1 9980.8 6168.1 15271 8291.6 376.91 7994.3-8750.6 4498.5-13452 4617.7-3740.2 66-5629.2-6317.6-2615.9-6797.5-37.43-1259.4-1376.1-3040.1-1699.6-3136.6-3868.6 749.9-3720-4169.6-1588.7-5717.1-707.52-1467.2 2218.2-3250.9-1898.1-2088.1-6463 148-13800-296.3-19708 264.1 6180.6 12850 8356.6 27059 11485 40793 1245 6802.8-2280.8 12959 414.34 19545-474.05 8143.2 19340 6460.3 12416 7385.8 32568 13.5 65135 385.2 97695 1084.4 195.01-8880.2 387.95-17760 581.15-26641z"/>
      <path d="m569299 5982828c-3531.5-676.1-3922-4443.1-3553.4-7103.2-2080.1-2403.3-662.93-6611.5 2574-3646.3-500.34 2342.2 2617.4 3058.1 4640.1 4319.3 2201.9 1882.2 4714.3 3523.5 6407 5595.9 220.74 3590.8-4946.6 920.5-6636.1 2342.6-1464.9 401-2036.4-1802.4-3431.6-1508.3z"/>
      <path d="m580489 6020526c-29544-336.4-60100-1119.9-89024-422.3 4508.3 7851.1 9356.8 17933 3522.2 26569-2780.2 3382.9 789.34 9205.2-4578.4 10693-1167.6 2883.4 5874.5 1918.9 7660.1 3175.1 4237.2 219.5 9232.2-582.6 10364 5201.9 2468 4141 5663.3 7907.8 7517.1 12364 27590 89 55179 433.7 82762 1044.3 425.87-19415 850.19-38830 1276.8-58244-6499.7-135.9-13000-262.5-19500-380.5z"/>
      <path d="m564908 5972506c228.26 2540.1 1113.3 4866.3 911.84 7753.2 2633.2 2115.7 6098.3 5195.7 9488.8 3332.1 3699.6 2157.5 5583.1-2283.8 1898.4-3643-2045.8-2080.6-4847.1-4062.2-7244.1-5182-1823.8-706.8-1170.6-2209.2-2334.7-2931.2-1274.1-722.6-3105-2115.9-2720.3 670.9z"/>
      <path d="m373472 6079837c-19576 559.9-39150 1203.1-58716 2048.6 340.42 9672.9 973.4 19654 1085.4 29128-5034.9 850.6-1183.1 21971-1698.9 15541 4648.5 7115.6 27033 3146.3 22845 3063.9 21730-803.3 43466-1439.1 65205-1923.4-1418.4-11808 2021.8-26317 1213.6-22633-187.35-8651.6-374.36-17303-561.18-25955-9792 213.8-19583 457.6-29374 730z"/>
      <path d="m404122 6059666c-2334.4-6351.1-18596-15734-6784.6-19281-16930 699.3-35275 129.5-51336 1854.6-145.37 3978.2 1528.7 8573.7-100.54 11695 57.29 2640.4 1316.8 5118.6-3366.8 4331.3-2554.5-239.9-3930.8 2446.5-6741.1 999.9 3241 8945.7 5588.3 27712 110.2 21782 22309-812.3 44624-1452.9 66942-1939.9-1321.4-8653.1 2621.4-10927 1276.3-19442z"/>
      <path d="m335879 6061621c-1292-17841-11794-8486.9-9823.7-1635.5 2999.4 5643.6-4461.3 2679.5-4947.7 6562.6-380.12 1746-1478.9 3591.2-2226.6 5264.9-7327.1 4352.4 4862.5 12550-939.43 9937.8 8411.6-634.3 11209-23193 16013-10336 4784.2 1072.4 905.6-7183.7 1924.8-9793.4z"/>
      <path d="m434502 6082515c1610.6-1215-578.31-1774.9-902.93-124.4 50.35 331.4 610.16 68 902.93 124.4z"/>
      <path d="m338961 6042002c-8083-37.1-8642.8 21770-13208 10126 10648-4265.7 18100 9747 13008 7435.5 1747.5-2513.2 9844.6 372.4 6930.8-4691 1882.8-3783.8 244.15-8447.7 274.99-13106-2335.5 79-4671 157.4-7006.6 236z"/>
      <path d="m321857 6042711c-12058-9810.4-3532 41508-5646.4 14733 1747.9 3529.5-2715.6 15864 2884.6 14142 790.51-2029.8 1914.6-4065.7 2386.4-6073.1 2051.8-2429.6 6793.4-301.9 4573.6-5528.2-2132.8-3867.5 3447.7-20107-4198.2-17274z"/>
      <path d="m316954 6073424c2412.1 211.6-160.58-3076.6-387.9-411 197.35 41.5 258.41 378.1 387.9 411z"/>
      <path d="m315722 6073190c-686-2867.2-2581.8 2107-386.54 2040.3 39.57-622 1641-1733.7 386.54-2040.3z"/>
      <path d="m315215 6072160c-231.71 1999.6 2336.2-81.1 0 0z"/>
      <path d="m316223 6075852c1079.2-1193.8 62.88-4099.6-763.04-956.9-1282.7 471.9-1399.1 1586.8 698.96 1044.5z"/>
      <path d="m317300 6073661c-2251.6-700.6 1250.3 1547.7 0 0z"/>
      <path d="m317276 6074162c-1396.7-346.3-950.86 4530.5 493.95 1131.2 936.76-1744.4-96.89-933.2-493.95-1131.2z"/>
      <path d="m316533 6072954c-792.3-2611.5-136.82 2113.9 33.61 59.7z"/>
     </g>
    </g>
   </g>
  </g>
 </svg>
</svg>
